<svg width="180" height="16" viewBox="0 0 180 16" fill="none" xmlns="http://www.w3.org/2000/svg">
<path d="M11.4672 0.0229223V1.7192H6.85117V16H4.64033V1.7192H0V0.0229223H11.4672Z" fill="#F2F2F2"/>
<path d="M36.953 0.0229223V16H34.7421V8.75645H26.1174V16H23.9066V0.0229223H26.1174V7.03725H34.7421V0.0229223H36.953Z" fill="#F2F2F2"/>
<path d="M52.6568 1.7192V7.06017H58.8277V8.77937H52.6568V14.2808H59.5565V16H50.4459V0H59.5565V1.7192H52.6568Z" fill="#F2F2F2"/>
<path d="M94.0869 0.0229223C95.9333 0.0229223 97.5286 0.35148 98.873 1.0086C100.233 1.65043 101.27 2.57498 101.983 3.78223C102.712 4.98949 103.076 6.4107 103.076 8.04584C103.076 9.68099 102.712 11.1022 101.983 12.3095C101.27 13.5014 100.233 14.4183 98.873 15.0602C97.5286 15.6867 95.9333 16 94.0869 16H88.8149V0.0229223H94.0869ZM94.0869 14.2808C96.2734 14.2808 97.9417 13.7383 99.0916 12.6533C100.242 11.553 100.817 10.0172 100.817 8.04584C100.817 6.05922 100.233 4.50812 99.0673 3.39255C97.9174 2.27698 96.2572 1.7192 94.0869 1.7192H91.0257V14.2808H94.0869Z" fill="#F2F2F2"/>
<path d="M125.088 10.7507H118.966L116.973 16H114.641L120.763 0.114613H123.314L129.412 16H127.08L125.088 10.7507ZM125.088 10.7507L122.027 2.68195L118.966 10.7507H125.088Z" fill="#F2F2F2"/>
<path d="M150.715 16L146.682 9.46705H144.01V16H141.799V0.0229223H147.265C148.545 0.0229223 149.622 0.229226 150.496 0.641834C151.387 1.05444 152.051 1.61223 152.488 2.31519C152.926 3.01815 153.144 3.82044 153.144 4.72206C153.144 5.82235 152.804 6.79274 152.124 7.63324C151.46 8.47373 150.456 9.03152 149.111 9.30659L153.363 16H150.715ZM144.01 7.7937H147.265C148.464 7.7937 149.363 7.51862 149.962 6.96848C150.561 6.40306 150.861 5.65425 150.861 4.72206C150.861 3.77459 150.561 3.04107 149.962 2.52149C149.379 2.00191 148.48 1.74212 147.265 1.74212H144.01V7.7937Z" fill="#F2F2F2"/>
<path d="M175.675 10.7507H169.553L167.561 16H165.229L171.351 0.114613H173.902L180 16H177.668L175.675 10.7507ZM175.675 10.7507L172.614 2.68195L169.553 10.7507H175.675Z" fill="#F2F2F2"/>
</svg>
