<svg width="180" height="16" fill="none" xmlns="http://www.w3.org/2000/svg"><path d="M11.467.023v1.696H6.851V16h-2.21V1.72H0V.022h11.467zm25.486 0V16h-2.21V8.756h-8.626V16h-2.21V.023h2.21v7.014h8.625V.023h2.211zM52.657 1.72v5.34h6.17v1.72h-6.17v5.5h6.9V16h-9.111V0h9.11v1.72h-6.9zM94.087.023c1.846 0 3.442.328 4.786.986 1.36.641 2.397 1.566 3.11 2.773.729 1.207 1.093 2.629 1.093 4.264 0 1.635-.364 3.056-1.093 4.264-.713 1.191-1.75 2.108-3.11 2.75-1.344.627-2.94.94-4.786.94h-5.272V.023h5.272zm0 14.258c2.186 0 3.855-.543 5.005-1.628 1.15-1.1 1.725-2.636 1.725-4.607 0-1.987-.584-3.538-1.75-4.653-1.15-1.116-2.81-1.674-4.98-1.674h-3.061v12.562h3.06zm31.001-3.531h-6.122L116.973 16h-2.332L120.763.115h2.551L129.412 16h-2.332l-1.992-5.25zm0 0l-3.061-8.068-3.061 8.069h6.122zM150.715 16l-4.033-6.533h-2.672V16h-2.211V.023h5.466c1.28 0 2.357.206 3.231.619.891.412 1.555.97 1.992 1.673.438.703.656 1.505.656 2.407 0 1.1-.34 2.07-1.02 2.911-.664.84-1.668 1.399-3.013 1.674L153.363 16h-2.648zm-6.705-8.206h3.255c1.199 0 2.098-.275 2.697-.826.599-.565.899-1.314.899-2.246 0-.947-.3-1.68-.899-2.2-.583-.52-1.482-.78-2.697-.78h-3.255v6.052zm31.665 2.956h-6.122L167.561 16h-2.332L171.351.115h2.551L180 16h-2.332l-1.993-5.25zm0 0l-3.061-8.068-3.061 8.069h6.122z" fill="#F2F2F2"/></svg>